# xmcd
# Copyright (C) 1995-1998 Ti Kan
#
# Track frame offsets:
#       150
#       17031
#       34512
#       48849
#       65579
#       79984
#       93969
#       108786
#       127687
#       143384
#       160155
#
# Disc length: 2392 seconds
#
# Revision: 0
# Processed by: cddbd v1.5.2PL0 Copyright (c) Steve Scherf et al.
# Submitted via: CD-Import v1.0
#
DISCID=7809560b
DTITLE=Hederos and Hellberg - Together In The Darkness
DYEAR=2002
DGENRE=
TTITLE0=Together In The Darkness
TTITLE1=Mellow My Mind
TTITLE2=Hang On To A Dream
TTITLE3=It Wont Grow
TTITLE4=Concrete Jungle
TTITLE5=Epitaph (Black And Blue)
TTITLE6=Bless Me
TTITLE7=Shine A Light
TTITLE8=Endless Exile
TTITLE9=Sounds From Silence
TTITLE10=No Fun
EXTD=
EXTT0=
EXTT1=
EXTT2=
EXTT3=
EXTT4=
EXTT5=
EXTT6=
EXTT7=
EXTT8=
EXTT9=
EXTT10=
PLAYORDER=
